<svg xmlns="http://www.w3.org/2000/svg" viewBox="0 0 360 210" role="img" aria-label="AdaptaEDU — Educação com Acessibilidade">
  <title>AdaptaEDU — Educação com Acessibilidade</title>
  <g transform="translate(120 4)">
  <circle cx="60" cy="60" r="51" fill="none" stroke="#E8763A" stroke-width="6.5"/>
  <!-- livro aberto -->
  <g stroke="#1B7480" stroke-width="5.5" stroke-linecap="round" stroke-linejoin="round">
    <path d="M30 51v31h60V51" fill="#fff"/>
    <path d="M36 45c9.5 0 18.5 2.2 24 8.2V84c-5.5-6-14.5-8.2-24-8.2V45z" fill="#fff"/>
    <path d="M84 45c-9.5 0-18.5 2.2-24 8.2V84c5.5-6 14.5-8.2 24-8.2V45z" fill="#fff"/>
    <path d="M60 53.2V84" fill="none"/>
  </g>
  <!-- seta de crescimento -->
  <g fill="none" stroke="#E8763A" stroke-width="6" stroke-linecap="round" stroke-linejoin="round">
    <path d="M60 74V44c0-9.5 7-15.5 15.5-15.5"/>
    <path d="M67.5 21.5L78.5 28.5 71.5 39.5"/>
  </g>
  </g>
  <text x="180" y="172" text-anchor="middle"
        font-family="Poppins, 'Segoe UI', 'Helvetica Neue', Arial, sans-serif"
        font-size="47" font-weight="600" letter-spacing="-0.5">
    <tspan fill="#E8763A">A</tspan><tspan fill="#1B7480">dapta</tspan><tspan fill="#E8763A">Edu</tspan>
  </text>
  <text x="180" y="196" text-anchor="middle" fill="#1B7480"
        font-family="Poppins, 'Segoe UI', 'Helvetica Neue', Arial, sans-serif"
        font-size="15" font-weight="500" letter-spacing="2.2">EDUCAÇÃO COM ACESSIBILIDADE</text>
</svg>
